# xmcd
#
# Track frame offsets: 
#        150
#        10297
#        22622
#        35232
#        46887
#        58987
#        76570
#
# Disc length: 1158 seconds
#
# Revision: 0
# Processed by: cddbd v1.5.2PL0 Copyright (c) Steve Scherf et al.
# Submitted via: ExactAudioCopy v1.0b3
#
DISCID=49048407
DTITLE=Various Artist - Tutti frutti - Musica per le orecchie
DYEAR=1900
DGENRE=Blues
TTITLE0=Tutti frutti
TTITLE1=Blueberry Hill
TTITLE2=Banana Boat
TTITLE3=Peaches'cream
TTITLE4=Coconut woman
TTITLE5=Strawberry fields forever
TTITLE6=Tutti frutti
EXTD=
EXTT0=
EXTT1=
EXTT2=
EXTT3=
EXTT4=
EXTT5=
EXTT6=
PLAYORDER=
